<mxfile host="app.diagrams.net" modified="2023-05-01T09:42:13.464Z" agent="5.0 (Windows NT 10.0; Win64; x64) AppleWebKit/537.36 (KHTML, like Gecko) Chrome/112.0.0.0 Safari/537.36" etag="uqcW6rQzoWbUrSy8E5oK" version="21.0.2" type="github">
  <diagram id="6a731a19-8d31-9384-78a2-239565b7b9f0" name="Page-1">
    <mxGraphModel dx="1571" dy="631" grid="1" gridSize="10" guides="1" tooltips="1" connect="1" arrows="1" fold="1" page="1" pageScale="1" pageWidth="1169" pageHeight="827" background="none" math="0" shadow="0">
      <root>
        <mxCell id="0" />
        <mxCell id="1" parent="0" />
        <mxCell id="2" value="start" style="shape=mxgraph.flowchart.terminator;strokeWidth=2;gradientColor=none;gradientDirection=north;fontStyle=0;html=1;" parent="1" vertex="1">
          <mxGeometry x="260" y="70" width="120" height="30" as="geometry" />
        </mxCell>
        <mxCell id="3" value="创建线程池pool&lt;br&gt;创建users数组" style="shape=mxgraph.flowchart.data;strokeWidth=2;gradientColor=none;gradientDirection=north;fontStyle=0;html=1;" parent="1" vertex="1">
          <mxGeometry x="240.5" y="130" width="159" height="40" as="geometry" />
        </mxCell>
        <mxCell id="5" value="创建用于监听的socket&lt;br&gt;int listenfd = socket" style="shape=mxgraph.flowchart.data;strokeWidth=2;gradientColor=none;gradientDirection=north;fontStyle=0;html=1;" parent="1" vertex="1">
          <mxGeometry x="235" y="190" width="169.5" height="40" as="geometry" />
        </mxCell>
        <mxCell id="6" value="true?" style="shape=mxgraph.flowchart.decision;strokeWidth=2;gradientColor=none;gradientDirection=north;fontStyle=0;html=1;" parent="1" vertex="1">
          <mxGeometry x="270.75" y="520" width="98" height="57" as="geometry" />
        </mxCell>
        <mxCell id="7" style="fontStyle=1;strokeColor=#003366;strokeWidth=1;html=1;" parent="1" source="2" target="3" edge="1">
          <mxGeometry relative="1" as="geometry" />
        </mxCell>
        <mxCell id="8" style="fontStyle=1;strokeColor=#003366;strokeWidth=1;html=1;" parent="1" source="3" target="5" edge="1">
          <mxGeometry relative="1" as="geometry" />
        </mxCell>
        <mxCell id="11" value="yes" style="text;fontStyle=0;html=1;strokeColor=none;gradientColor=none;fillColor=none;strokeWidth=2;" parent="1" vertex="1">
          <mxGeometry x="329.25" y="570" width="40" height="26" as="geometry" />
        </mxCell>
        <mxCell id="12" value="" style="edgeStyle=elbowEdgeStyle;elbow=horizontal;fontColor=#001933;fontStyle=1;strokeColor=#003366;strokeWidth=1;html=1;" parent="1" source="6" target="4" edge="1">
          <mxGeometry width="100" height="100" as="geometry">
            <mxPoint y="100" as="sourcePoint" />
            <mxPoint x="100" as="targetPoint" />
          </mxGeometry>
        </mxCell>
        <mxCell id="14" value="no 即不是lfd是读事件" style="text;fontStyle=0;html=1;strokeColor=none;gradientColor=none;fillColor=none;strokeWidth=2;align=center;" parent="1" vertex="1">
          <mxGeometry x="466" y="850" width="40" height="26" as="geometry" />
        </mxCell>
        <mxCell id="17" value="" style="edgeStyle=elbowEdgeStyle;elbow=horizontal;fontStyle=1;strokeColor=#003366;strokeWidth=1;html=1;startArrow=none;" parent="1" edge="1">
          <mxGeometry x="4" y="57" width="100" height="100" as="geometry">
            <mxPoint x="320" y="817" as="sourcePoint" />
            <mxPoint x="320" y="837" as="targetPoint" />
          </mxGeometry>
        </mxCell>
        <mxCell id="40" value="end" style="shape=mxgraph.flowchart.terminator;strokeWidth=2;gradientColor=none;gradientDirection=north;fontStyle=0;html=1;" parent="1" vertex="1">
          <mxGeometry x="259.74" y="1150" width="120" height="30" as="geometry" />
        </mxCell>
        <mxCell id="43" value="" style="edgeStyle=elbowEdgeStyle;elbow=vertical;entryX=0.5;entryY=0;entryPerimeter=0;fontStyle=1;strokeColor=#003366;strokeWidth=1;html=1;" parent="1" target="40" edge="1">
          <mxGeometry x="-0.26" y="-760" width="100" height="100" as="geometry">
            <mxPoint x="320" y="1090" as="sourcePoint" />
            <mxPoint x="99.74000000000001" y="-760" as="targetPoint" />
          </mxGeometry>
        </mxCell>
        <mxCell id="54" value="" style="edgeStyle=elbowEdgeStyle;elbow=horizontal;fontStyle=1;strokeColor=#003366;strokeWidth=1;html=1;exitX=0;exitY=0.5;exitDx=0;exitDy=0;exitPerimeter=0;entryX=0.095;entryY=0.5;entryDx=0;entryDy=0;entryPerimeter=0;" parent="1" source="ogRnIA-VlkdB2omSrmeh-84" target="ogRnIA-VlkdB2omSrmeh-90" edge="1">
          <mxGeometry width="100" height="100" as="geometry">
            <mxPoint x="180" y="700" as="sourcePoint" />
            <mxPoint x="200" y="650" as="targetPoint" />
            <Array as="points">
              <mxPoint x="50" y="940" />
              <mxPoint x="90" y="240" />
              <mxPoint x="120" y="970" />
            </Array>
          </mxGeometry>
        </mxCell>
        <mxCell id="ogRnIA-VlkdB2omSrmeh-56" value="创建地址 address&lt;br&gt;设置端口复用&lt;br&gt;setsockopt" style="shape=mxgraph.flowchart.data;strokeWidth=2;gradientColor=none;gradientDirection=north;fontStyle=0;html=1;" vertex="1" parent="1">
          <mxGeometry x="230" y="252" width="169.5" height="50" as="geometry" />
        </mxCell>
        <mxCell id="ogRnIA-VlkdB2omSrmeh-57" value="绑定socket和地址&lt;br&gt;bind" style="shape=mxgraph.flowchart.data;strokeWidth=2;gradientColor=none;gradientDirection=north;fontStyle=0;html=1;" vertex="1" parent="1">
          <mxGeometry x="226.25" y="324" width="169.5" height="39" as="geometry" />
        </mxCell>
        <mxCell id="ogRnIA-VlkdB2omSrmeh-58" value="用listenfd监听" style="shape=mxgraph.flowchart.data;strokeWidth=2;gradientColor=none;gradientDirection=north;fontStyle=0;html=1;" vertex="1" parent="1">
          <mxGeometry x="221.5" y="387" width="178" height="26.5" as="geometry" />
        </mxCell>
        <mxCell id="ogRnIA-VlkdB2omSrmeh-59" value="创建epoll对象&lt;br&gt;int epollfd = epoll_create&lt;br&gt;把listenfd注册到epoll中&lt;br&gt;创建events数组" style="shape=mxgraph.flowchart.data;strokeWidth=2;gradientColor=none;gradientDirection=north;fontStyle=0;html=1;" vertex="1" parent="1">
          <mxGeometry x="196.5" y="436.5" width="215" height="60" as="geometry" />
        </mxCell>
        <mxCell id="ogRnIA-VlkdB2omSrmeh-60" style="fontStyle=1;strokeColor=#003366;strokeWidth=1;html=1;exitX=0.5;exitY=1;exitDx=0;exitDy=0;exitPerimeter=0;" edge="1" parent="1" source="5">
          <mxGeometry relative="1" as="geometry">
            <mxPoint x="330" y="233" as="sourcePoint" />
            <mxPoint x="320" y="253" as="targetPoint" />
          </mxGeometry>
        </mxCell>
        <mxCell id="ogRnIA-VlkdB2omSrmeh-61" style="fontStyle=1;strokeColor=#003366;strokeWidth=1;html=1;exitX=0.5;exitY=1;exitDx=0;exitDy=0;exitPerimeter=0;" edge="1" parent="1">
          <mxGeometry relative="1" as="geometry">
            <mxPoint x="319" y="301" as="sourcePoint" />
            <mxPoint x="319" y="324" as="targetPoint" />
          </mxGeometry>
        </mxCell>
        <mxCell id="ogRnIA-VlkdB2omSrmeh-62" style="fontStyle=1;strokeColor=#003366;strokeWidth=1;html=1;exitX=0.5;exitY=1;exitDx=0;exitDy=0;exitPerimeter=0;" edge="1" parent="1">
          <mxGeometry relative="1" as="geometry">
            <mxPoint x="320" y="363" as="sourcePoint" />
            <mxPoint x="320" y="386" as="targetPoint" />
          </mxGeometry>
        </mxCell>
        <mxCell id="ogRnIA-VlkdB2omSrmeh-63" style="fontStyle=1;strokeColor=#003366;strokeWidth=1;html=1;exitX=0.5;exitY=1;exitDx=0;exitDy=0;exitPerimeter=0;" edge="1" parent="1">
          <mxGeometry relative="1" as="geometry">
            <mxPoint x="319" y="414" as="sourcePoint" />
            <mxPoint x="319" y="437" as="targetPoint" />
          </mxGeometry>
        </mxCell>
        <mxCell id="ogRnIA-VlkdB2omSrmeh-64" style="fontStyle=1;strokeColor=#003366;strokeWidth=1;html=1;exitX=0.5;exitY=1;exitDx=0;exitDy=0;exitPerimeter=0;" edge="1" parent="1">
          <mxGeometry relative="1" as="geometry">
            <mxPoint x="319" y="497" as="sourcePoint" />
            <mxPoint x="319" y="520" as="targetPoint" />
          </mxGeometry>
        </mxCell>
        <mxCell id="ogRnIA-VlkdB2omSrmeh-67" value="i&amp;lt;number?" style="shape=mxgraph.flowchart.decision;strokeWidth=2;gradientColor=none;gradientDirection=north;fontStyle=0;html=1;" vertex="1" parent="1">
          <mxGeometry x="271.25" y="760.5" width="98" height="57" as="geometry" />
        </mxCell>
        <mxCell id="ogRnIA-VlkdB2omSrmeh-73" value="yes" style="text;fontStyle=0;html=1;strokeColor=none;gradientColor=none;fillColor=none;strokeWidth=2;" vertex="1" parent="1">
          <mxGeometry x="328.75" y="813" width="40" height="26" as="geometry" />
        </mxCell>
        <mxCell id="ogRnIA-VlkdB2omSrmeh-78" value="" style="edgeStyle=elbowEdgeStyle;elbow=horizontal;fontStyle=1;strokeColor=#003366;strokeWidth=1;html=1;startArrow=none;" edge="1" parent="1">
          <mxGeometry x="3.6399999999999864" y="-41.5" width="100" height="100" as="geometry">
            <mxPoint x="319.64" y="718.5" as="sourcePoint" />
            <mxPoint x="320" y="760" as="targetPoint" />
          </mxGeometry>
        </mxCell>
        <mxCell id="ogRnIA-VlkdB2omSrmeh-80" value="yes" style="text;fontStyle=0;html=1;strokeColor=none;gradientColor=none;fillColor=none;strokeWidth=2;" vertex="1" parent="1">
          <mxGeometry x="326.75" y="902" width="40" height="26" as="geometry" />
        </mxCell>
        <mxCell id="ogRnIA-VlkdB2omSrmeh-81" value="" style="edgeStyle=elbowEdgeStyle;elbow=horizontal;fontStyle=1;strokeColor=#003366;strokeWidth=1;html=1;startArrow=none;" edge="1" parent="1">
          <mxGeometry x="4" y="148" width="100" height="100" as="geometry">
            <mxPoint x="320" y="908" as="sourcePoint" />
            <mxPoint x="320" y="928" as="targetPoint" />
          </mxGeometry>
        </mxCell>
        <mxCell id="ogRnIA-VlkdB2omSrmeh-82" value="建立连接&lt;br&gt;accept&lt;br&gt;返回connfd" style="shape=mxgraph.flowchart.data;strokeWidth=2;gradientColor=none;gradientDirection=north;fontStyle=0;html=1;" vertex="1" parent="1">
          <mxGeometry x="235" y="928" width="173.75" height="46" as="geometry" />
        </mxCell>
        <mxCell id="ogRnIA-VlkdB2omSrmeh-83" value="初始化该连接&lt;br&gt;users[connfd].init" style="shape=mxgraph.flowchart.data;strokeWidth=2;gradientColor=none;gradientDirection=north;fontStyle=0;html=1;" vertex="1" parent="1">
          <mxGeometry x="224.12" y="993" width="173.75" height="46" as="geometry" />
        </mxCell>
        <mxCell id="ogRnIA-VlkdB2omSrmeh-84" value="number&amp;lt;0&lt;br&gt;errno!=EINTR" style="shape=mxgraph.flowchart.decision;strokeWidth=2;gradientColor=none;gradientDirection=north;fontStyle=0;html=1;" vertex="1" parent="1">
          <mxGeometry x="255.12" y="673.5" width="129.25" height="57" as="geometry" />
        </mxCell>
        <mxCell id="ogRnIA-VlkdB2omSrmeh-85" value="yes 即 有error" style="text;fontStyle=0;html=1;strokeColor=none;gradientColor=none;fillColor=none;strokeWidth=2;" vertex="1" parent="1">
          <mxGeometry x="177" y="680" width="40" height="26" as="geometry" />
        </mxCell>
        <mxCell id="ogRnIA-VlkdB2omSrmeh-86" value="主线程从sockfd读数据&lt;br&gt;read()" style="shape=mxgraph.flowchart.data;strokeWidth=2;gradientColor=none;gradientDirection=north;fontStyle=0;html=1;" vertex="1" parent="1">
          <mxGeometry x="420" y="908.5" width="180" height="34.5" as="geometry" />
        </mxCell>
        <mxCell id="ogRnIA-VlkdB2omSrmeh-87" value="no 即 不是lfd是写事件" style="text;fontStyle=0;html=1;strokeColor=none;gradientColor=none;fillColor=none;strokeWidth=2;align=center;" vertex="1" parent="1">
          <mxGeometry x="149" y="850" width="40" height="26" as="geometry" />
        </mxCell>
        <mxCell id="ogRnIA-VlkdB2omSrmeh-88" value="加入工作队列&lt;br&gt;pool-&amp;gt;append" style="shape=mxgraph.flowchart.data;strokeWidth=2;gradientColor=none;gradientDirection=north;fontStyle=0;html=1;" vertex="1" parent="1">
          <mxGeometry x="450" y="963" width="173.75" height="30" as="geometry" />
        </mxCell>
        <mxCell id="ogRnIA-VlkdB2omSrmeh-89" value="主线程写入数据&lt;br&gt;write()" style="shape=mxgraph.flowchart.data;strokeWidth=2;gradientColor=none;gradientDirection=north;fontStyle=0;html=1;" vertex="1" parent="1">
          <mxGeometry x="60" y="908.5" width="180" height="34.5" as="geometry" />
        </mxCell>
        <mxCell id="ogRnIA-VlkdB2omSrmeh-90" value="关闭epollfd&lt;br&gt;关闭listenfd&lt;br&gt;释放users&lt;br&gt;释放pool" style="shape=mxgraph.flowchart.data;strokeWidth=2;gradientColor=none;gradientDirection=north;fontStyle=0;html=1;" vertex="1" parent="1">
          <mxGeometry x="240" y="1070" width="153.75" height="56" as="geometry" />
        </mxCell>
        <mxCell id="ogRnIA-VlkdB2omSrmeh-91" value="" style="edgeStyle=elbowEdgeStyle;elbow=horizontal;fontStyle=1;strokeColor=#003366;strokeWidth=1;html=1;startArrow=none;" edge="1" parent="1">
          <mxGeometry x="2.6399999999999864" y="-110.5" width="100" height="100" as="geometry">
            <mxPoint x="318.64" y="649.5" as="sourcePoint" />
            <mxPoint x="318.64" y="674.5" as="targetPoint" />
          </mxGeometry>
        </mxCell>
        <mxCell id="4" value="监听事件 - epoll_wait&lt;br&gt;事件存储在events中&lt;br&gt;返回事件个数number" style="shape=mxgraph.flowchart.data;strokeWidth=2;gradientColor=none;gradientDirection=north;fontStyle=0;html=1;" parent="1" vertex="1">
          <mxGeometry x="226.25" y="600" width="173.75" height="60" as="geometry" />
        </mxCell>
        <mxCell id="ogRnIA-VlkdB2omSrmeh-92" value="" style="edgeStyle=elbowEdgeStyle;elbow=horizontal;fontStyle=1;strokeColor=#003366;strokeWidth=1;html=1;startArrow=none;" edge="1" parent="1">
          <mxGeometry x="3" y="212" width="100" height="100" as="geometry">
            <mxPoint x="319" y="972" as="sourcePoint" />
            <mxPoint x="319" y="992" as="targetPoint" />
          </mxGeometry>
        </mxCell>
        <mxCell id="ogRnIA-VlkdB2omSrmeh-93" value="no 即 没有error &lt;br&gt;挨着处理事件" style="text;fontStyle=0;html=1;strokeColor=none;gradientColor=none;fillColor=none;strokeWidth=2;align=center;" vertex="1" parent="1">
          <mxGeometry x="349.37" y="725" width="40" height="23.5" as="geometry" />
        </mxCell>
        <mxCell id="ogRnIA-VlkdB2omSrmeh-94" value="" style="edgeStyle=elbowEdgeStyle;elbow=horizontal;fontStyle=1;strokeColor=#003366;strokeWidth=1;html=1;exitX=0;exitY=0.5;exitDx=0;exitDy=0;entryX=0.5;entryY=0;entryDx=0;entryDy=0;entryPerimeter=0;exitPerimeter=0;" edge="1" parent="1" source="ogRnIA-VlkdB2omSrmeh-79">
          <mxGeometry x="10" y="27" width="100" height="100" as="geometry">
            <mxPoint x="265" y="729" as="sourcePoint" />
            <mxPoint x="150" y="908.5" as="targetPoint" />
            <Array as="points">
              <mxPoint x="150" y="887" />
              <mxPoint x="130" y="997" />
            </Array>
          </mxGeometry>
        </mxCell>
        <mxCell id="ogRnIA-VlkdB2omSrmeh-79" value="取sockfd&lt;br&gt;sockfd==listenfd?" style="shape=mxgraph.flowchart.decision;strokeWidth=2;gradientColor=none;gradientDirection=north;fontStyle=0;html=1;" vertex="1" parent="1">
          <mxGeometry x="227.13" y="838" width="187.75" height="70.5" as="geometry" />
        </mxCell>
        <mxCell id="ogRnIA-VlkdB2omSrmeh-95" value="" style="edgeStyle=elbowEdgeStyle;elbow=horizontal;fontStyle=1;strokeColor=#003366;strokeWidth=1;html=1;exitX=1;exitY=0.5;exitDx=0;exitDy=0;exitPerimeter=0;" edge="1" parent="1" source="ogRnIA-VlkdB2omSrmeh-79">
          <mxGeometry x="399.75" y="26.5" width="100" height="100" as="geometry">
            <mxPoint x="616.75" y="872.5" as="sourcePoint" />
            <mxPoint x="520" y="907" as="targetPoint" />
            <Array as="points">
              <mxPoint x="520" y="887" />
              <mxPoint x="534.75" y="876.5" />
              <mxPoint x="519.75" y="996.5" />
            </Array>
          </mxGeometry>
        </mxCell>
        <mxCell id="ogRnIA-VlkdB2omSrmeh-96" value="" style="edgeStyle=elbowEdgeStyle;elbow=horizontal;fontStyle=1;strokeColor=#003366;strokeWidth=1;html=1;startArrow=none;" edge="1" parent="1">
          <mxGeometry x="202" y="183" width="100" height="100" as="geometry">
            <mxPoint x="518" y="943" as="sourcePoint" />
            <mxPoint x="518" y="963" as="targetPoint" />
          </mxGeometry>
        </mxCell>
        <mxCell id="ogRnIA-VlkdB2omSrmeh-97" value="" style="edgeStyle=elbowEdgeStyle;elbow=horizontal;fontStyle=1;strokeColor=#003366;strokeWidth=1;html=1;" edge="1" parent="1">
          <mxGeometry x="71.75" y="174" width="100" height="100" as="geometry">
            <mxPoint x="100" y="907" as="sourcePoint" />
            <mxPoint x="270" y="787" as="targetPoint" />
            <Array as="points">
              <mxPoint x="100" y="707" />
              <mxPoint x="161.75" y="414" />
              <mxPoint x="191.75" y="1144" />
            </Array>
          </mxGeometry>
        </mxCell>
        <mxCell id="ogRnIA-VlkdB2omSrmeh-98" value="" style="edgeStyle=elbowEdgeStyle;elbow=horizontal;fontStyle=1;strokeColor=#003366;strokeWidth=1;html=1;entryX=1;entryY=0.5;entryDx=0;entryDy=0;entryPerimeter=0;exitX=0.871;exitY=-0.004;exitDx=0;exitDy=0;exitPerimeter=0;" edge="1" parent="1" source="ogRnIA-VlkdB2omSrmeh-88" target="ogRnIA-VlkdB2omSrmeh-67">
          <mxGeometry x="391.75" y="241" width="100" height="100" as="geometry">
            <mxPoint x="600" y="957" as="sourcePoint" />
            <mxPoint x="591" y="633" as="targetPoint" />
            <Array as="points">
              <mxPoint x="601" y="767" />
              <mxPoint x="620" y="727" />
              <mxPoint x="620" y="727" />
              <mxPoint x="481.75" y="481" />
              <mxPoint x="511.75" y="1211" />
            </Array>
          </mxGeometry>
        </mxCell>
        <mxCell id="ogRnIA-VlkdB2omSrmeh-99" value="" style="edgeStyle=elbowEdgeStyle;elbow=horizontal;fontStyle=1;strokeColor=#003366;strokeWidth=1;html=1;exitX=0.905;exitY=0.5;exitDx=0;exitDy=0;exitPerimeter=0;entryX=0.791;entryY=0.759;entryDx=0;entryDy=0;entryPerimeter=0;" edge="1" parent="1" source="ogRnIA-VlkdB2omSrmeh-83" target="ogRnIA-VlkdB2omSrmeh-67">
          <mxGeometry x="401.75" y="251" width="100" height="100" as="geometry">
            <mxPoint x="611" y="973" as="sourcePoint" />
            <mxPoint x="370" y="787" as="targetPoint" />
            <Array as="points">
              <mxPoint x="420" y="797" />
              <mxPoint x="630" y="737" />
              <mxPoint x="630" y="737" />
              <mxPoint x="491.75" y="491" />
              <mxPoint x="521.75" y="1221" />
            </Array>
          </mxGeometry>
        </mxCell>
        <mxCell id="ogRnIA-VlkdB2omSrmeh-101" value="i++" style="text;fontStyle=0;html=1;strokeColor=none;gradientColor=none;fillColor=none;strokeWidth=2;" vertex="1" parent="1">
          <mxGeometry x="102" y="884.5" width="40" height="26" as="geometry" />
        </mxCell>
        <mxCell id="ogRnIA-VlkdB2omSrmeh-103" value="i++" style="text;fontStyle=0;html=1;strokeColor=none;gradientColor=none;fillColor=none;strokeWidth=2;" vertex="1" parent="1">
          <mxGeometry x="577" y="940" width="40" height="26" as="geometry" />
        </mxCell>
        <mxCell id="ogRnIA-VlkdB2omSrmeh-105" value="i++" style="text;fontStyle=0;html=1;strokeColor=none;gradientColor=none;fillColor=none;strokeWidth=2;" vertex="1" parent="1">
          <mxGeometry x="388" y="1011" width="40" height="26" as="geometry" />
        </mxCell>
        <mxCell id="ogRnIA-VlkdB2omSrmeh-107" value="" style="edgeStyle=elbowEdgeStyle;elbow=horizontal;fontStyle=1;strokeColor=#003366;strokeWidth=1;html=1;entryX=1;entryY=0.5;entryDx=0;entryDy=0;entryPerimeter=0;exitX=0.731;exitY=0.256;exitDx=0;exitDy=0;exitPerimeter=0;" edge="1" parent="1" source="ogRnIA-VlkdB2omSrmeh-67" target="6">
          <mxGeometry x="461.5" y="-21.5" width="100" height="100" as="geometry">
            <mxPoint x="370" y="760" as="sourcePoint" />
            <mxPoint x="408.75" y="531.5" as="targetPoint" />
            <Array as="points">
              <mxPoint x="479.75" y="524.5" />
              <mxPoint x="689.75" y="464.5" />
              <mxPoint x="689.75" y="464.5" />
              <mxPoint x="551.5" y="218.5" />
              <mxPoint x="581.5" y="948.5" />
            </Array>
          </mxGeometry>
        </mxCell>
        <mxCell id="ogRnIA-VlkdB2omSrmeh-109" value="break 跳出" style="text;fontStyle=0;html=1;strokeColor=none;gradientColor=none;fillColor=none;strokeWidth=2;" vertex="1" parent="1">
          <mxGeometry x="177" y="697" width="40" height="26" as="geometry" />
        </mxCell>
      </root>
    </mxGraphModel>
  </diagram>
</mxfile>
